<svg xmlns="http://www.w3.org/2000/svg" id="Capa_1" viewBox="0 0 40 40">
  <style>
    .st0{fill:#C7DDE2;}
  </style>
  <path d="M20 0C9 0 0 9 0 20s9 20 20 20 20-9 20-20S31 0 20 0zm10.1 22.2c.9.9 1.9 1.8 2.8 2.8.4.4.7.9 1 1.4.4.7 0 1.5-.6 1.6h-4.1c-1.1.1-1.9-.3-2.6-1.1-.6-.6-1.1-1.2-1.6-1.8l-.7-.7c-.6-.4-1-.3-1.4.3-.3.6-.4 1.3-.4 1.9 0 1-.3 1.2-1.3 1.3-2.1.1-4-.2-5.9-1.3-1.6-.9-2.9-2.2-3.9-3.7-2.1-2.9-3.7-6-5.2-9.3-.5-.6-.2-1 .6-1h4c.5 0 .9.3 1.1.8.7 1.8 1.6 3.5 2.7 5 .3.4.6.8 1 1.1.5.3.8.2 1.1-.3.1-.3.2-.7.2-1.1.1-1.2.1-2.5-.1-3.7-.1-.8-.5-1.3-1.3-1.4-.4-.1-.3-.2-.1-.4.3-.4.6-.6 1.3-.6h4.6c.7.1.9.5 1 1.2v5.1c0 .3.1 1.1.7 1.3.4.1.7-.2.9-.5 1.1-1.2 1.9-2.6 2.6-4 .3-.6.6-1.3.8-1.9.2-.5.5-.7 1-.7h4.9c.8.1 1 .5.7 1.2-.4 1.2-1.1 2.1-1.8 3.1s-1.5 2-2.3 3.1c-.5 1-.5 1.4.3 2.3z" class="st0"/>
</svg>
