<svg xmlns="http://www.w3.org/2000/svg" id="Capa_1" viewBox="0 0 40 40">
  <style>
    .st0{fill:#C7DDE2;}
  </style>
  <path d="M20 24c2.2 0 4-1.8 4-4 0-.9-.3-1.7-.8-2.3-.7-1-1.9-1.7-3.2-1.7-1.3 0-2.5.7-3.2 1.7-.5.6-.8 1.4-.8 2.3 0 2.2 1.8 4 4 4zm8.7-8.9v-3.9h-.5l-3.3.1v3.8z" class="st0"/>
  <path d="M20 0C9 0 0 9 0 20s9 20 20 20 20-9 20-20S31 0 20 0zm11.4 17.7V27c0 2.4-2 4.4-4.4 4.4H13c-2.4 0-4.4-2-4.4-4.4V13c0-2.4 2-4.4 4.4-4.4h14c2.4 0 4.4 2 4.4 4.4v4.7z" class="st0"/>
  <path d="M26.2 20c0 3.4-2.8 6.2-6.2 6.2s-6.2-2.8-6.2-6.2c0-.8.2-1.6.5-2.3h-3.4V27c0 1.2 1 2.2 2.2 2.2h14c1.2 0 2.2-1 2.2-2.2v-9.3h-3.4c.2.7.3 1.5.3 2.3z" class="st0"/>
</svg>
