<svg xmlns="http://www.w3.org/2000/svg" viewBox="0 0 289.5 190.48">
  <defs>
    <style>
      .a{fill:#c90c0f;}.b{fill:#797978;}.c{fill:#053844;}
    </style>
  </defs>
  <path d="M9.51 111.94a8.91 8.91 0 0 1 1-4 18.49 18.49 0 0 1 2.42-3.65 32.83 32.83 0 0 1 3-3.17c1.06-1 2-1.82 2.83-2.55.37-.37.94-.88 1.72-1.52s1.58-1.29 2.42-1.93 1.58-1.22 2.27-1.73a13.8 13.8 0 0 0 1.31-1q.83-.55 3.1-1.93c1.52-.92 3.13-1.87 4.83-2.82s3.31-1.89 4.82-2.76a36.31 36.31 0 0 1 3.24-1.72 28.23 28.23 0 0 0 4.28-1.59q3-1.31 6.41-3t6.13-3.24a20.13 20.13 0 0 0 3.4-2.22 8.26 8.26 0 0 0 1.65-4.2q.28-2.42.56-4.34 1.52-7.87 3-15.79a88.42 88.42 0 0 0 1.45-15.92 8.24 8.24 0 0 0-1.24-5 15.85 15.85 0 0 0-2.69-2.83 22 22 0 0 1-2.62-2.48 5.72 5.72 0 0 1-1.17-3.92 2.22 2.22 0 0 1 1.1-1.66 20.86 20.86 0 0 1 2.48-1.59q1.38-.75 2.62-1.58a3.39 3.39 0 0 0 1.51-1.79 17.27 17.27 0 0 0 .76-3.79 19.77 19.77 0 0 1 .76-3.93 7.26 7.26 0 0 1 1.79-3A5.28 5.28 0 0 1 76.51.05a5.07 5.07 0 0 1 2.75.69 8.36 8.36 0 0 1 1.93 1.65q.84 1 1.59 2a8.73 8.73 0 0 0 1.86 1.87q1.79 0 4.83.2a25.24 25.24 0 0 1 5.86 1.1 13.76 13.76 0 0 1 4.89 2.69 6.23 6.23 0 0 1 2.07 5 10.92 10.92 0 0 1-.55 3.45q-.56 1.65-1.17 3.1c-.41 1-.78 1.9-1.1 2.83a7.72 7.72 0 0 0-.48 2.61c0 .46.69.82 2.06 1.1l5.17 1q3.1.62 6.76 1.65a31.84 31.84 0 0 1 6.71 2.72 16.59 16.59 0 0 1 5.17 4.41 10.63 10.63 0 0 1 2.07 6.68 9.34 9.34 0 0 1-1.1 4.69 13.07 13.07 0 0 1-2.76 3.38 25.67 25.67 0 0 1-3.58 2.62 28.6 28.6 0 0 0-3.58 2.55l-21.93 9.79a15.34 15.34 0 0 0-4.27 1.39 19.86 19.86 0 0 1-3.86 1.51 49.28 49.28 0 0 1-6.48 1.39 14.23 14.23 0 0 0-6.2 2.61 7.89 7.89 0 0 0-1.72 2.48 29.92 29.92 0 0 0-1.58 3.85q-.69 2.08-1.31 4.14c-.42 1.38-.72 2.39-.9 3l-3.31 12a4.67 4.67 0 0 1-1.16 2.06 2.85 2.85 0 0 1-2.14 1 3.9 3.9 0 0 1-1.59-.27 2.85 2.85 0 0 1-1.17-1.51c0-.19 0-.62-.07-1.31s-.06-1.12-.06-1.31a26.75 26.75 0 0 1 1.24-8 26.89 26.89 0 0 0 1.24-8 2.94 2.94 0 0 0-.27-1.59 1.88 1.88 0 0 0-1.38-.34 16.68 16.68 0 0 0-5.52 1.38 61.56 61.56 0 0 0-7.72 3.65q-4.14 2.27-8.48 5.17a86 86 0 0 0-7.86 5.86 40.19 40.19 0 0 0-5.72 5.79c-1.47 1.88-2.21 3.51-2.21 4.89a4.63 4.63 0 0 0 1.31 3 3.74 3.74 0 0 0 2.83 1.52h.27c.83 0 1.89 0 3.17-.07l3.8-.13c1.24-.05 2.79-.16 4.62-.34.09 0 .42-.06 1-.14s1.13-.2 1.72-.34l1.73-.42a6.7 6.7 0 0 1 1-.2h1.24a6 6 0 0 1 2.52.56 2.19 2.19 0 0 1 1.17 2.21q0 2.48-3.45 4.27a36 36 0 0 1-7.92 2.89 68.2 68.2 0 0 1-9 1.59q-4.48.47-6.54.48a12.28 12.28 0 0 1-8-2.82 9.54 9.54 0 0 1-3.44-7.79zm64.8-42.33a10.63 10.63 0 0 0 3.86-.68l3.45-1.51 5.31-2.35q2.82-1.24 5.31-2.41c1.66-.78 2.8-1.31 3.44-1.58l12.69-7.45c.64-.37 1.38-.83 2.2-1.38a18.31 18.31 0 0 0 2.35-1.86 11.09 11.09 0 0 0 1.86-2.27 5.24 5.24 0 0 0 .76-2.75 3.16 3.16 0 0 0-1.38-2.76 10.09 10.09 0 0 0-3.25-1.45 17 17 0 0 0-3.78-.55c-1.29 0-2.3-.07-3-.07a25 25 0 0 0-7 1c-2.21.65-4.5 1.24-6.9 1.79a5.06 5.06 0 0 0-1 .21c-.51.13-1.08.28-1.72.41s-1.24.25-1.8.34a2.47 2.47 0 0 0-1 .28 8.33 8.33 0 0 0-2.82 2.69 12.52 12.52 0 0 0-2 3.52l-5.51 17.09v1.79zm12.54-51.69a3.44 3.44 0 0 0 1.38 2.48 4 4 0 0 0 2.61 1.24 4.18 4.18 0 0 0 2.62-1 3 3 0 0 0 1.24-2.49 2.43 2.43 0 0 0-.82-1.86 3.54 3.54 0 0 0-2.07-.89 7.92 7.92 0 0 0-1.1.14 10.71 10.71 0 0 0-1.65.41 4.83 4.83 0 0 0-1.52.83 1.48 1.48 0 0 0-.69 1.14z" class="a"/>
  <path d="M9.85 188.01a.2.2 0 0 1 0 .12.25.25 0 0 1-.13.08l-.25.05h-.79l-.25-.05a.27.27 0 0 1-.13-.08.19.19 0 0 1 0-.12v-6.9l-2.45 6.87a.33.33 0 0 1-.09.14.4.4 0 0 1-.16.09 1.05 1.05 0 0 1-.26 0h-.76a1.2 1.2 0 0 1-.26-.05.45.45 0 0 1-.16-.09.25.25 0 0 1-.08-.12l-2.44-6.84v6.88a.21.21 0 0 1 0 .12.25.25 0 0 1-.13.08l-.25.05H.47l-.25-.05a.25.25 0 0 1-.13-.08.21.21 0 0 1 0-.12v-7.53a.69.69 0 0 1 .18-.51.63.63 0 0 1 .47-.17h1.12a2.22 2.22 0 0 1 .52 0 1 1 0 0 1 .37.16.93.93 0 0 1 .26.3 2.15 2.15 0 0 1 .18.46l1.83 5 1.9-5a2.8 2.8 0 0 1 .19-.46 1.08 1.08 0 0 1 .24-.31.75.75 0 0 1 .32-.17 1.54 1.54 0 0 1 .42 0h1.16a.91.91 0 0 1 .3 0 .52.52 0 0 1 .21.13.58.58 0 0 1 .12.22.93.93 0 0 1 0 .29v7.53zm9.53-.44a2.47 2.47 0 0 1 0 .32.84.84 0 0 1 0 .21.25.25 0 0 1-.08.11.17.17 0 0 1-.11 0h-4.25a.54.54 0 0 1-.36-.13.52.52 0 0 1-.15-.41v-7.37a.52.52 0 0 1 .15-.41.53.53 0 0 1 .36-.13h4.22a.17.17 0 0 1 .1 0 .25.25 0 0 1 .08.11.87.87 0 0 1 0 .21 2.7 2.7 0 0 1 0 .33 2.51 2.51 0 0 1 0 .31.79.79 0 0 1 0 .21.27.27 0 0 1-.08.11.16.16 0 0 1-.1 0h-3v2.06h2.55a.18.18 0 0 1 .11 0 .25.25 0 0 1 .08.11.78.78 0 0 1 0 .2 3 3 0 0 1 0 .62.79.79 0 0 1 0 .2.24.24 0 0 1-.08.11.19.19 0 0 1-.11 0h-2.55v2.39h3a.18.18 0 0 1 .11 0 .25.25 0 0 1 .08.11.84.84 0 0 1 0 .21 2.49 2.49 0 0 1 .03.52zm14.03.44a.19.19 0 0 1 0 .12.29.29 0 0 1-.14.08l-.27.05h-.89a1.26 1.26 0 0 1-.28-.05.33.33 0 0 1-.15-.1.54.54 0 0 1-.08-.15l-.61-1.92a3.83 3.83 0 0 0-.27-.68 1.71 1.71 0 0 0-.33-.44 1.08 1.08 0 0 0-.42-.24 1.91 1.91 0 0 0-.53-.07h-.33v3.38a.19.19 0 0 1 0 .12.32.32 0 0 1-.13.08 1.1 1.1 0 0 1-.26.05h-.82a1.1 1.1 0 0 1-.26-.05.29.29 0 0 1-.13-.08.2.2 0 0 1 0-.12v-3.38h-.33a1.75 1.75 0 0 0-.56.08 1.13 1.13 0 0 0-.43.25 1.63 1.63 0 0 0-.32.44 4.11 4.11 0 0 0-.25.65l-.6 1.92a.53.53 0 0 1-.08.15.32.32 0 0 1-.15.1 1.31 1.31 0 0 1-.28.05h-.89l-.27-.05a.29.29 0 0 1-.14-.08.19.19 0 0 1 0-.12v-.08a.62.62 0 0 1 0-.11v-.15l.07-.2.59-1.69a6.28 6.28 0 0 1 .33-.79 2.87 2.87 0 0 1 .35-.54 1.77 1.77 0 0 1 .4-.36 2.68 2.68 0 0 1 .48-.24 1.67 1.67 0 0 1-.42-.2 1.56 1.56 0 0 1-.36-.33 3 3 0 0 1-.32-.51 6.36 6.36 0 0 1-.3-.74l-.5-1.52a3.09 3.09 0 0 1-.1-.33 1 1 0 0 1 0-.21.2.2 0 0 1 0-.12.25.25 0 0 1 .13-.08h1.13a1.14 1.14 0 0 1 .27.05.3.3 0 0 1 .14.1.55.55 0 0 1 .07.15l.54 1.79a4 4 0 0 0 .24.63 1.4 1.4 0 0 0 .3.41 1 1 0 0 0 .39.23 1.83 1.83 0 0 0 .53.07h.33v-3.17a.2.2 0 0 1 0-.12.27.27 0 0 1 .13-.08 1.19 1.19 0 0 1 .26 0h.82a1.19 1.19 0 0 1 .26 0 .3.3 0 0 1 .13.08.19.19 0 0 1 0 .12v3.17h.33a1.65 1.65 0 0 0 .52-.08 1.07 1.07 0 0 0 .4-.24 1.51 1.51 0 0 0 .3-.42 3.36 3.36 0 0 0 .24-.61l.5-1.77a.55.55 0 0 1 .07-.15.3.3 0 0 1 .14-.1 1.15 1.15 0 0 1 .27-.05h1.08a.25.25 0 0 1 .13.08.19.19 0 0 1 0 .12.94.94 0 0 1 0 .21c0 .08-.05.19-.09.33l-.5 1.49a6.17 6.17 0 0 1-.29.71 2.56 2.56 0 0 1-.31.5 1.73 1.73 0 0 1-.36.34 2.09 2.09 0 0 1-.44.23 2.86 2.86 0 0 1 .49.26 1.86 1.86 0 0 1 .4.37 2.73 2.73 0 0 1 .34.54c.1.21.21.48.33.79l.58 1.69.07.2v.15a.88.88 0 0 1 0 .11.56.56 0 0 1 .11.08zm11.78 2.23a.19.19 0 0 1 0 .11.25.25 0 0 1-.12.08h-1.19a.26.26 0 0 1-.12-.08.17.17 0 0 1 0-.11v-2h-5.63v2a.17.17 0 0 1 0 .11.26.26 0 0 1-.12.08h-1.2a.24.24 0 0 1-.12-.08.18.18 0 0 1 0-.11v-3a.33.33 0 0 1 .07-.27.32.32 0 0 1 .24-.08h.39c.1-.15.2-.3.3-.46a3.93 3.93 0 0 0 .27-.56 7.54 7.54 0 0 0 .26-.77c.08-.3.17-.66.25-1.09s.17-.94.25-1.53.17-1.28.26-2.08a.85.85 0 0 1 .15-.43.42.42 0 0 1 .34-.13h4.22a.48.48 0 0 1 .36.13.57.57 0 0 1 .13.41v6.52h.72a.29.29 0 0 1 .25.09.42.42 0 0 1 .07.26v3zm-2.75-9.06h-2q-.12 1-.23 1.75t-.23 1.32q-.11.57-.23 1a7.12 7.12 0 0 1-.24.71 3.55 3.55 0 0 1-.25.52 4.35 4.35 0 0 1-.27.39h3.42v-5.67zm10.42 4.73a8.88 8.88 0 0 1-.56 1.21 2.94 2.94 0 0 1-.59.75 1.8 1.8 0 0 1-.69.39 3.14 3.14 0 0 1-.86.11h-.35l-.32-.06-.26-.09-.16-.1a.37.37 0 0 1-.08-.1.58.58 0 0 1 0-.15 1.66 1.66 0 0 1 0-.23v-.35a1.83 1.83 0 0 1 .06-.54.19.19 0 0 1 .17-.16.25.25 0 0 1 .13 0l.17.1.23.09a1.11 1.11 0 0 0 .57 0 .54.54 0 0 0 .22-.11 1 1 0 0 0 .21-.24 3 3 0 0 0 .22-.4l-2.78-5.67a1.26 1.26 0 0 1-.11-.33.21.21 0 0 1 .06-.2.48.48 0 0 1 .26-.09 4.26 4.26 0 0 1 .5 0h.49a1.1 1.1 0 0 1 .29.05.38.38 0 0 1 .17.13 1.31 1.31 0 0 1 .12.21l1.19 2.56c.13.27.25.55.37.82s.23.55.34.82c.09-.29.18-.58.28-.85l.32-.87 1-2.6a.4.4 0 0 1 .09-.15.35.35 0 0 1 .16-.09 1.2 1.2 0 0 1 .29 0h.96a.53.53 0 0 1 .26.08.16.16 0 0 1 .07.15.93.93 0 0 1-.06.26zm12.59 2.1a.18.18 0 0 1 0 .12.29.29 0 0 1-.14.08l-.26.05h-.83l-.26-.05a.29.29 0 0 1-.14-.08.18.18 0 0 1 0-.12v-3.42h-3.16v3.42a.19.19 0 0 1 0 .12.27.27 0 0 1-.14.08l-.26.05h-.84l-.26-.05a.29.29 0 0 1-.14-.08.18.18 0 0 1 0-.12v-8a.18.18 0 0 1 0-.12.3.3 0 0 1 .14-.08l.26-.05h.84l.26.05a.28.28 0 0 1 .14.08.19.19 0 0 1 0 .12v3.1h3.03v-3.1a.18.18 0 0 1 0-.12.29.29 0 0 1 .14-.08l.26-.05h.83l.26.05a.3.3 0 0 1 .14.08.18.18 0 0 1 0 .12v8zm11.44-.41a2.32 2.32 0 0 1 .1.37.23.23 0 0 1-.05.21.44.44 0 0 1-.26.09h-1a1.13 1.13 0 0 1-.28 0 .26.26 0 0 1-.14-.08.44.44 0 0 1-.07-.14l-.57-1.7h-3.18L70.9 188a.53.53 0 0 1-.07.15.29.29 0 0 1-.14.1 1 1 0 0 1-.27 0h-.92a.36.36 0 0 1-.24-.09.26.26 0 0 1 0-.21 2.09 2.09 0 0 1 .1-.37l2.61-7.5a.63.63 0 0 1 .09-.18.32.32 0 0 1 .17-.11 1.31 1.31 0 0 1 .32 0h1.14a1.63 1.63 0 0 1 .36 0 .35.35 0 0 1 .18.11.65.65 0 0 1 .09.2zm-3.88-6.2l-1.2 3.59h2.4zm13.53.95a3.36 3.36 0 0 1-.22 1.26 2.43 2.43 0 0 1-.65.92 2.88 2.88 0 0 1-1 .57 4.86 4.86 0 0 1-1.45.19h-.71v2.7a.18.18 0 0 1 0 .12.29.29 0 0 1-.14.08l-.26.05h-.84l-.26-.05a.27.27 0 0 1-.14-.08.19.19 0 0 1 0-.12v-7.61a.61.61 0 0 1 .16-.46.59.59 0 0 1 .42-.15h2.57c.18 0 .4 0 .65.1a2.92 2.92 0 0 1 .77.28 2.28 2.28 0 0 1 .66.51 2.14 2.14 0 0 1 .42.72 2.83 2.83 0 0 1 .02.97zm-1.8.13a1.51 1.51 0 0 0-.16-.73 1.09 1.09 0 0 0-.39-.43 1.32 1.32 0 0 0-.5-.21 3.61 3.61 0 0 0-.52 0h-.73v2.87h.77a1.88 1.88 0 0 0 .69-.11 1.19 1.19 0 0 0 .45-.31 1.36 1.36 0 0 0 .34-.45 1.93 1.93 0 0 0 .05-.63zm13.42 1.44a6.26 6.26 0 0 1-.26 1.88 3.81 3.81 0 0 1-.78 1.41 3.36 3.36 0 0 1-1.28.88 4.72 4.72 0 0 1-1.76.3 5.15 5.15 0 0 1-1.72-.26 3 3 0 0 1-1.23-.79 3.37 3.37 0 0 1-.73-1.35 6.76 6.76 0 0 1-.25-1.93 6.05 6.05 0 0 1 .26-1.85 3.76 3.76 0 0 1 .78-1.4 3.42 3.42 0 0 1 1.28-.88 4.73 4.73 0 0 1 1.77-.31 5.19 5.19 0 0 1 1.7.25 3 3 0 0 1 1.23.79 3.4 3.4 0 0 1 .74 1.34 6.44 6.44 0 0 1 .25 1.92zm-1.8.09a6.41 6.41 0 0 0-.11-1.21 2.59 2.59 0 0 0-.36-.93 1.69 1.69 0 0 0-.67-.6 2.28 2.28 0 0 0-1-.21 2.12 2.12 0 0 0-1.06.24 1.93 1.93 0 0 0-.69.64 2.65 2.65 0 0 0-.37.93 5.75 5.75 0 0 0-.11 1.13 6.79 6.79 0 0 0 .1 1.25 2.69 2.69 0 0 0 .35.94 1.61 1.61 0 0 0 .67.6 2.35 2.35 0 0 0 1.05.21 2.17 2.17 0 0 0 1.06-.23 1.92 1.92 0 0 0 .69-.64 2.7 2.7 0 0 0 .37-.95 5.77 5.77 0 0 0 .07-1.17zm13.33 6.23a.18.18 0 0 1 0 .11.24.24 0 0 1-.12.08h-1.19a.25.25 0 0 1-.12-.08.17.17 0 0 1 0-.11v-2h-5.67v2a.18.18 0 0 1 0 .11.26.26 0 0 1-.12.08h-1.2a.23.23 0 0 1-.12-.08.18.18 0 0 1 0-.11v-3a.33.33 0 0 1 .07-.27.32.32 0 0 1 .24-.08h.39c.1-.15.2-.3.3-.46a4 4 0 0 0 .27-.56 7.67 7.67 0 0 0 .26-.77c.08-.3.17-.66.25-1.09s.17-.94.25-1.53.17-1.28.26-2.08a.85.85 0 0 1 .15-.43.42.42 0 0 1 .34-.13h4.32a.48.48 0 0 1 .36.13.57.57 0 0 1 .13.41v6.52h.72a.28.28 0 0 1 .25.09.42.42 0 0 1 .07.26v3zm-2.75-9.06h-2q-.12 1-.23 1.75c-.08.5-.15.94-.23 1.32s-.15.71-.23 1a7.24 7.24 0 0 1-.24.71 3.59 3.59 0 0 1-.25.52 4.35 4.35 0 0 1-.27.39h3.42v-5.67zm13.27 6.83a.18.18 0 0 1 0 .12.29.29 0 0 1-.14.08l-.26.05h-.83l-.29-.05a.29.29 0 0 1-.14-.08.19.19 0 0 1 0-.12v-3.42h-3.16v3.42a.19.19 0 0 1 0 .12.27.27 0 0 1-.14.08l-.26.05h-.84l-.26-.05a.29.29 0 0 1-.2-.1.18.18 0 0 1 0-.12v-8a.18.18 0 0 1 0-.12.3.3 0 0 1 .14-.08l.26-.05h.84l.26.05a.27.27 0 0 1 .14.08.19.19 0 0 1 0 .12v3.12h3.16v-3.1a.19.19 0 0 1 0-.12.3.3 0 0 1 .14-.08l.26-.05h.83l.26.05a.3.3 0 0 1 .14.08.18.18 0 0 1 0 .12v8zm10.61-2.56a3.14 3.14 0 0 1-.19 1.1 2.27 2.27 0 0 1-.59.88 2.91 2.91 0 0 1-1 .59 5.52 5.52 0 0 1-1.75.22h-2a.7.7 0 0 1-.21 0 .42.42 0 0 1-.17-.1.5.5 0 0 1-.11-.17.62.62 0 0 1 0-.25v-7.71a.16.16 0 0 1 0-.12.32.32 0 0 1 .14-.08h1.36a.29.29 0 0 1 .14.08.17.17 0 0 1 0 .12v2.92h1.06a5.56 5.56 0 0 1 1.51.17 2.72 2.72 0 0 1 1 .48 2.2 2.2 0 0 1 .61.8 2.54 2.54 0 0 1 .2 1.07zm-1.76.14a1.64 1.64 0 0 0-.09-.56 1.11 1.11 0 0 0-.28-.42 1.34 1.34 0 0 0-.48-.27 2.92 2.92 0 0 0-.87-.1h-.88v2.69h.91a2.59 2.59 0 0 0 .9-.12 1.15 1.15 0 0 0 .72-.74 1.54 1.54 0 0 0 .06-.47zm4.52 2.42a.17.17 0 0 1 0 .11.31.31 0 0 1-.14.08l-.27.05h-.88l-.26-.05a.3.3 0 0 1-.14-.08.17.17 0 0 1 0-.11v-8a.17.17 0 0 1 0-.12.31.31 0 0 1 .14-.08h1.09a1.26 1.26 0 0 1 .27 0 .32.32 0 0 1 .14.08.17.17 0 0 1 0 .12v8zm11.39.01a.17.17 0 0 1 0 .11.3.3 0 0 1-.14.08l-.26.05h-.88a1.19 1.19 0 0 1-.26-.05.3.3 0 0 1-.13-.08.18.18 0 0 1 0-.11v-5.4l-.12.21-.15.25-.17.28-.18.27-2.99 4.4-.11.13a.37.37 0 0 1-.14.08.8.8 0 0 1-.22 0h-.74a1.05 1.05 0 0 1-.25-.05.2.2 0 0 1-.15-.21v-8a.16.16 0 0 1 0-.12.31.31 0 0 1 .14-.08h1.35a.29.29 0 0 1 .14.08.17.17 0 0 1 0 .12v5.38l.28-.47c.11-.18.23-.36.35-.54l2.94-4.38.1-.11a.43.43 0 0 1 .14-.08.88.88 0 0 1 .22 0h.74a1.09 1.09 0 0 1 .24 0 .27.27 0 0 1 .13.08.2.2 0 0 1 0 .12v8zm-1-10.5a1.94 1.94 0 0 1-.12.69 1.49 1.49 0 0 1-.4.58 2 2 0 0 1-.73.4 3.59 3.59 0 0 1-1.11.15 3.81 3.81 0 0 1-1.09-.14 2.09 2.09 0 0 1-.74-.37 1.42 1.42 0 0 1-.41-.58 2 2 0 0 1-.13-.74.32.32 0 0 1 0-.16.27.27 0 0 1 .12-.1.76.76 0 0 1 .23-.05h.72a.63.63 0 0 1 .21.06.23.23 0 0 1 .1.1.34.34 0 0 1 0 .15.71.71 0 0 0 .06.29.67.67 0 0 0 .18.24 1 1 0 0 0 .3.17 1.21 1.21 0 0 0 .77 0 1 1 0 0 0 .29-.17.63.63 0 0 0 .18-.24.73.73 0 0 0 .06-.31.32.32 0 0 1 0-.14.21.21 0 0 1 .1-.1.63.63 0 0 1 .2-.06h.71a.85.85 0 0 1 .24.05.26.26 0 0 1 .13.1.31.31 0 0 1 .13.18zm17.48 10.49a.19.19 0 0 1 0 .12.29.29 0 0 1-.14.08l-.27.05h-.89a1.28 1.28 0 0 1-.28-.05.35.35 0 0 1-.18-.1.41.41 0 0 1-.08-.15l-.7-1.85a4.29 4.29 0 0 0-.3-.69 1.84 1.84 0 0 0-.35-.45 1.14 1.14 0 0 0-.43-.25 1.89 1.89 0 0 0-.54-.07h-.38v3.38a.18.18 0 0 1 0 .12.31.31 0 0 1-.14.08 1.13 1.13 0 0 1-.26.05h-.83a1.13 1.13 0 0 1-.26-.05.34.34 0 0 1-.14-.08.19.19 0 0 1 0-.12v-8a.18.18 0 0 1 0-.12.32.32 0 0 1 .14-.08 1.23 1.23 0 0 1 .26 0h.83a1.23 1.23 0 0 1 .26 0 .29.29 0 0 1 .14.08.18.18 0 0 1 0 .12v3.17h.38a1.56 1.56 0 0 0 .52-.08 1.15 1.15 0 0 0 .4-.25 1.68 1.68 0 0 0 .33-.44 4.25 4.25 0 0 0 .29-.67l.56-1.65a.69.69 0 0 1 .08-.15.33.33 0 0 1 .15-.1 1.21 1.21 0 0 1 .27-.05h1.13a.24.24 0 0 1 .13.08.21.21 0 0 1 0 .12 1.06 1.06 0 0 1 0 .21 3.4 3.4 0 0 1-.1.33l-.57 1.5a6 6 0 0 1-.31.71 3.09 3.09 0 0 1-.33.5 1.84 1.84 0 0 1-.36.33 2 2 0 0 1-.43.22 3 3 0 0 1 .47.25 1.92 1.92 0 0 1 .4.36 3.08 3.08 0 0 1 .36.53 7.1 7.1 0 0 1 .35.77l.69 1.75a2.54 2.54 0 0 1 .12.37.87.87 0 0 1 .01.17zm10.83.01a.17.17 0 0 1 0 .11.31.31 0 0 1-.14.08l-.26.05h-.83a1.18 1.18 0 0 1-.26-.05.28.28 0 0 1-.13-.08.18.18 0 0 1 0-.11v-5.4l-.12.21-.15.25-.17.28-.18.27-2.94 4.38a.69.69 0 0 1-.11.13.38.38 0 0 1-.14.08.8.8 0 0 1-.22 0h-.74a1.06 1.06 0 0 1-.25-.05.23.23 0 0 1-.12-.08.24.24 0 0 1 0-.12v-8a.17.17 0 0 1 0-.12.31.31 0 0 1 .15-.08 1.25 1.25 0 0 1 .26 0h.76a1.25 1.25 0 0 1 .26 0 .29.29 0 0 1 .14.08.17.17 0 0 1 0 .12v5.38l.28-.47c.12-.18.23-.36.35-.54l2.94-4.38.1-.11a.41.41 0 0 1 .14-.08.86.86 0 0 1 .22 0h.74a1.08 1.08 0 0 1 .25 0 .25.25 0 0 1 .13.08.2.2 0 0 1 0 .12v8zm11.12-.01a.17.17 0 0 1 0 .12.27.27 0 0 1-.14.08l-.26.05h-.83l-.26-.05a.29.29 0 0 1-.22-.1.18.18 0 0 1 0-.12v-3.42h-3.16v3.42a.18.18 0 0 1 0 .12.26.26 0 0 1-.13.08l-.26.05h-.84l-.26-.05a.3.3 0 0 1-.14-.08.18.18 0 0 1 0-.12v-8a.18.18 0 0 1 0-.12.31.31 0 0 1 .14-.08l.26-.05h.84l.26.05a.27.27 0 0 1 .13.08.18.18 0 0 1 0 .12v3.12h3.16v-3.1a.18.18 0 0 1 0-.12.29.29 0 0 1 .14-.08l.26-.05h.83l.26.05a.28.28 0 0 1 .14.08.17.17 0 0 1 0 .12v8zm12.13-4.09a6.22 6.22 0 0 1-.26 1.88 3.81 3.81 0 0 1-.77 1.41 3.37 3.37 0 0 1-1.28.88 4.72 4.72 0 0 1-1.76.3 5.15 5.15 0 0 1-1.77-.28 3 3 0 0 1-1.22-.79 3.35 3.35 0 0 1-.74-1.35 6.68 6.68 0 0 1-.25-1.93 6 6 0 0 1 .26-1.85 3.79 3.79 0 0 1 .78-1.4 3.43 3.43 0 0 1 1.28-.88 4.74 4.74 0 0 1 1.77-.31 5.18 5.18 0 0 1 1.69.25 3 3 0 0 1 1.23.79 3.38 3.38 0 0 1 .74 1.34 6.45 6.45 0 0 1 .3 1.94zm-1.81.09a6.49 6.49 0 0 0-.1-1.21 2.6 2.6 0 0 0-.36-.93 1.69 1.69 0 0 0-.67-.6 2.29 2.29 0 0 0-1-.21 2.12 2.12 0 0 0-1.06.24 1.92 1.92 0 0 0-.69.64 2.64 2.64 0 0 0-.37.93 5.59 5.59 0 0 0-.11 1.13 6.77 6.77 0 0 0 .1 1.25 2.64 2.64 0 0 0 .35.94 1.59 1.59 0 0 0 .67.6 2.34 2.34 0 0 0 1.05.21 2.16 2.16 0 0 0 1.06-.23 1.92 1.92 0 0 0 .69-.64 2.74 2.74 0 0 0 .37-.95 5.73 5.73 0 0 0 .04-1.17zm14.2-.25a3.54 3.54 0 0 1-.22 1.29 2.75 2.75 0 0 1-.67 1 3.32 3.32 0 0 1-1.1.68 5.16 5.16 0 0 1-1.51.32v1a.17.17 0 0 1 0 .12.3.3 0 0 1-.14.08 1.06 1.06 0 0 1-.26 0h-.82a1.1 1.1 0 0 1-.26 0 .3.3 0 0 1-.14-.07.17.17 0 0 1 0-.12v-1a5.73 5.73 0 0 1-1.52-.25 2.94 2.94 0 0 1-1.09-.61 2.59 2.59 0 0 1-.66-1 3.83 3.83 0 0 1-.22-1.38 3.29 3.29 0 0 1 .22-1.24 2.81 2.81 0 0 1 .67-1 3.4 3.4 0 0 1 1.09-.69 5.12 5.12 0 0 1 1.52-.34v-.93a.16.16 0 0 1 0-.11.28.28 0 0 1 .14-.07h1.33a.29.29 0 0 1 .14.07.16.16 0 0 1 0 .11v.93a5.68 5.68 0 0 1 1.51.27 3.11 3.11 0 0 1 1.09.61 2.48 2.48 0 0 1 .67 1 3.68 3.68 0 0 1 .23 1.33zm-5.18-1.88a2.44 2.44 0 0 0-.84.22 1.67 1.67 0 0 0-.55.42 1.6 1.6 0 0 0-.3.57 2.29 2.29 0 0 0-.09.67 2.83 2.83 0 0 0 .09.77 1.57 1.57 0 0 0 .3.59 1.52 1.52 0 0 0 .55.41 2.79 2.79 0 0 0 .84.22v-3.88zm3.45 2a2.88 2.88 0 0 0-.09-.75 1.48 1.48 0 0 0-.85-1 2.8 2.8 0 0 0-.85-.22v3.88a2.69 2.69 0 0 0 .84-.23 1.66 1.66 0 0 0 .55-.42 1.61 1.61 0 0 0 .31-.58 2.5 2.5 0 0 0 .09-.73zm10.83 3.69v.32a1 1 0 0 1 0 .21.26.26 0 0 1-.08.11.17.17 0 0 1-.11 0h-4.25a.53.53 0 0 1-.36-.13.52.52 0 0 1-.15-.41v-7.37a.52.52 0 0 1 .15-.41.53.53 0 0 1 .36-.13h4.11a.18.18 0 0 1 .1 0 .25.25 0 0 1 .08.11.76.76 0 0 1 0 .21 2.31 2.31 0 0 1 0 .33 2.14 2.14 0 0 1 0 .31.7.7 0 0 1 0 .21.26.26 0 0 1-.08.11.16.16 0 0 1-.1 0h-3v2.06h2.56a.17.17 0 0 1 .11 0 .25.25 0 0 1 .08.11.8.8 0 0 1 0 .2 3.32 3.32 0 0 1 0 .62.8.8 0 0 1 0 .2.23.23 0 0 1-.08.11.18.18 0 0 1-.11 0h-2.56v2.39h3a.17.17 0 0 1 .11 0 .26.26 0 0 1 .08.11 1 1 0 0 1 0 .21c.13.29.14.39.14.52zm9.74-.61v.28a1.44 1.44 0 0 1 0 .19.56.56 0 0 1-.05.14.72.72 0 0 1-.11.13 1.31 1.31 0 0 1-.28.19 3.13 3.13 0 0 1-.5.23 4.43 4.43 0 0 1-.68.18 4.58 4.58 0 0 1-.83.07 4.36 4.36 0 0 1-1.62-.26 3.11 3.11 0 0 1-1.19-.8 3.6 3.6 0 0 1-.75-1.33 5.94 5.94 0 0 1-.26-1.85 5.86 5.86 0 0 1 .29-1.92 4 4 0 0 1 .8-1.41 3.42 3.42 0 0 1 1.24-.86 4.22 4.22 0 0 1 1.59-.29 3.87 3.87 0 0 1 .68.06 4 4 0 0 1 .6.15 3.07 3.07 0 0 1 .5.22 1.56 1.56 0 0 1 .31.21.89.89 0 0 1 .12.15.54.54 0 0 1 .05.15 1.49 1.49 0 0 1 0 .22v.64a.84.84 0 0 1 0 .22.29.29 0 0 1-.08.13.15.15 0 0 1-.1 0 .46.46 0 0 1-.25-.12l-.39-.25a3.2 3.2 0 0 0-.57-.25 2.35 2.35 0 0 0-.79-.12 1.87 1.87 0 0 0-1.57.79 2.77 2.77 0 0 0-.42.92 4.78 4.78 0 0 0-.14 1.22 4.85 4.85 0 0 0 .15 1.29 2.49 2.49 0 0 0 .44.9 1.74 1.74 0 0 0 .69.53 2.29 2.29 0 0 0 .91.17 2.59 2.59 0 0 0 .79-.11 3.47 3.47 0 0 0 .57-.24l.39-.24a.48.48 0 0 1 .24-.1.2.2 0 0 1 .11 0 .2.2 0 0 1 .07.1 1.1 1.1 0 0 1 0 .22c.04.17.04.3.04.45zm9.54-6.47v.32a1 1 0 0 1-.05.22.31.31 0 0 1-.08.12.17.17 0 0 1-.11 0h-2.12v6.82a.19.19 0 0 1 0 .12.31.31 0 0 1-.14.08l-.26.05h-.84l-.26-.05a.27.27 0 0 1-.14-.08.17.17 0 0 1 0-.12v-6.82h-2.12a.17.17 0 0 1-.11 0 .31.31 0 0 1-.08-.12.8.8 0 0 1 0-.22 2.35 2.35 0 0 1 0-.32 2.5 2.5 0 0 1 0-.33.81.81 0 0 1 0-.22.31.31 0 0 1 .08-.12.18.18 0 0 1 .11 0h6a.19.19 0 0 1 .11 0 .3.3 0 0 1 .08.12 1 1 0 0 1 .05.22c-.13.09-.12.2-.12.33zm10.55 7.53a.18.18 0 0 1 0 .11.33.33 0 0 1-.14.08 1.21 1.21 0 0 1-.26.05h-.83a1.17 1.17 0 0 1-.26-.05.27.27 0 0 1-.13-.08.18.18 0 0 1 0-.11v-5.4l-.12.21-.15.25-.17.28-.19.27-2.94 4.38a.69.69 0 0 1-.11.13.36.36 0 0 1-.14.08.8.8 0 0 1-.22 0h-.74l-.25-.05a.24.24 0 0 1-.12-.08.23.23 0 0 1 0-.12v-8a.18.18 0 0 1 0-.12.34.34 0 0 1 .15-.08h1.35a.29.29 0 0 1 .14.08.18.18 0 0 1 0 .12v5.38c.07-.13.16-.29.28-.47s.23-.36.35-.54l2.94-4.38a.64.64 0 0 1 .1-.11.4.4 0 0 1 .14-.08.82.82 0 0 1 .22 0h.74a1.17 1.17 0 0 1 .25 0 .27.27 0 0 1 .13.08.18.18 0 0 1 0 .12v8zm10.65-2.31a2.54 2.54 0 0 1-.12.82 2.26 2.26 0 0 1-.35.65 2.14 2.14 0 0 1-.52.48 2.89 2.89 0 0 1-.67.33 4.13 4.13 0 0 1-.78.19 6.33 6.33 0 0 1-.92.06h-2.25a.52.52 0 0 1-.36-.13.52.52 0 0 1-.15-.41v-7.37a.48.48 0 0 1 .51-.54h2.12a5.67 5.67 0 0 1 1.32.13 2.59 2.59 0 0 1 .91.4 1.79 1.79 0 0 1 .57.67 2.18 2.18 0 0 1 .19 1 2 2 0 0 1-.08.58 1.7 1.7 0 0 1-.23.49 1.78 1.78 0 0 1-.37.39 2 2 0 0 1-.5.27 2.22 2.22 0 0 1 .66.23 1.88 1.88 0 0 1 .53.42 2 2 0 0 1 .35.6 2.2 2.2 0 0 1 .14.74zm-2.22-3.6a1.25 1.25 0 0 0-.08-.46.79.79 0 0 0-.24-.34 1.06 1.06 0 0 0-.39-.21 2.33 2.33 0 0 0-.64-.07h-.87v2.19h1a1.61 1.61 0 0 0 .59-.09 1 1 0 0 0 .59-.6 1.33 1.33 0 0 0 .04-.42zm.44 3.62a1.27 1.27 0 0 0-.1-.53 1 1 0 0 0-.29-.39 1.32 1.32 0 0 0-.49-.24 2.85 2.85 0 0 0-.76-.08h-1v2.4h1.24a2 2 0 0 0 .61-.08 1.27 1.27 0 0 0 .42-.22 1.1 1.1 0 0 0 .28-.37 1.22 1.22 0 0 0 .06-.45zm12.6 1.87a2.36 2.36 0 0 1 .1.37.22.22 0 0 1-.05.21.44.44 0 0 1-.25.09h-1a1.14 1.14 0 0 1-.29 0 .26.26 0 0 1-.14-.16.45.45 0 0 1-.06-.14l-.57-1.7h-3.18l-.54 1.65a.56.56 0 0 1-.06.15.29.29 0 0 1-.14.1 1 1 0 0 1-.27 0h-.92a.36.36 0 0 1-.23-.09.24.24 0 0 1 0-.21 2 2 0 0 1 .1-.37l2.61-7.5a.67.67 0 0 1 .09-.18.33.33 0 0 1 .17-.11 1.32 1.32 0 0 1 .32 0h1.15a1.61 1.61 0 0 1 .36 0 .36.36 0 0 1 .19.11.81.81 0 0 1 .1.2zm-3.88-6.2l-1.19 3.59h2.4zm14.31 6.62a.18.18 0 0 1 0 .11.29.29 0 0 1-.14.08l-.26.05h-.84l-.26-.05a.29.29 0 0 1-.14-.08.18.18 0 0 1 0-.11v-6.82h-1.81c-.13 1-.25 1.87-.37 2.61s-.26 1.38-.41 1.92a7.28 7.28 0 0 1-.47 1.3 2.84 2.84 0 0 1-.59.81 1.81 1.81 0 0 1-.75.41 3.71 3.71 0 0 1-.95.11.49.49 0 0 1-.17 0 .2.2 0 0 1-.11-.1.53.53 0 0 1-.07-.2 2.42 2.42 0 0 1 0-.33v-.45a1.14 1.14 0 0 1 0-.27.2.2 0 0 1 .21-.16 1 1 0 0 0 .39-.08 1 1 0 0 0 .36-.32 3.11 3.11 0 0 0 .33-.68 9.84 9.84 0 0 0 .31-1.15c.1-.48.2-1.06.31-1.75s.21-1.5.31-2.45a.88.88 0 0 1 .16-.47.44.44 0 0 1 .35-.13h4.15a.47.47 0 0 1 .36.13.56.56 0 0 1 .13.41v7.69zm10.75-2.58a3.23 3.23 0 0 1-.18 1.1 2.17 2.17 0 0 1-.58.88 2.89 2.89 0 0 1-1 .6 5.61 5.61 0 0 1-1.77.22h-2.11a.72.72 0 0 1-.21 0 .42.42 0 0 1-.16-.1.53.53 0 0 1-.12-.17.69.69 0 0 1 0-.25v-7.71a.17.17 0 0 1 0-.12.33.33 0 0 1 .15-.08 1.27 1.27 0 0 1 .27 0h1.09a.3.3 0 0 1 .14.08.18.18 0 0 1 0 .12v2.88h1.18a5.63 5.63 0 0 1 1.53.17 2.65 2.65 0 0 1 1 .49 2.21 2.21 0 0 1 .61.8 2.62 2.62 0 0 1 .16 1.09zm-1.77.14a1.65 1.65 0 0 0-.09-.57 1.09 1.09 0 0 0-.28-.42 1.27 1.27 0 0 0-.49-.27 3.14 3.14 0 0 0-.89-.09h-1v2.69h1a2.65 2.65 0 0 0 .92-.12 1.18 1.18 0 0 0 .47-.31 1.22 1.22 0 0 0 .25-.43 1.57 1.57 0 0 0 .07-.48z" class="b"/>
  <path d="M86.15 107.11c3.43-.13 5.2-1.63 7.29-4.12 5.41-6.45 11.86-9 5-17.65-4.34-5.51-11.06-3.51-15.66.16-10.18 8.12-3.38 19.92-3.68 18.9 2.22 3.33 3.33 2.81 7.05 2.71zm30.9-2c1.53-1 4.14-5.43 1.07-6.5-1.82-.63-4 1.06-5.6 1.59 0-3.72-2.41-6.56.22-10 1.73-2.28 4.25.16 5.29 1.77 2.19 3.41 3.76-5.34 2.77-7.63-3.29-7.57-12.69 1.25-14.59 5.41-2.29 5-1.13 12.36-.75 12.6.31 4.67 8.29 4.93 11.59 2.76zm14.64 1.94c3.16.3 7.87-.06 10.19-2.51 3.84-4-9.61-3.93-10.61-4.22-2-.58-3.75-2.08-3.72-4.28.06-3.6 3.86-2.39 6-2.12 2.62.31 14.45 1.67 12.56-4.42-1.22-3.93-9.74-9-13.92-7.16-5.19 2.26-6.77 7.11-8.38 12.05-.52 1.89-2.05 11.72 7.88 12.66zm46.34-23.23c-7.2-4.73-6.26 15.47-13.13 2.44-6.37-12.09-18.82 5.27-14 9.52 3.14 2.79-1 11.73 5.41 10.82 4.56-.65 1.58-13.33 2-16.48 2.43.81 4.41 3.26 5.91 5.19 1 1.29 3.51 7.5 5 7.81 5.21 1.06 4.19-7.36 5.39-10 1.51-3.28 3.82 9.53 4.56 10.74 1.59 2.6 4.57 1.43 5.74-.64s-1.79-16.05-6.88-19.4zm10.02 3.29c-.78 4.08-.06 20.84 5.83 19.81 4.14-.73 18.74-4.6 12.76-11.79-2.9-3.48-7.42-1-10.95-2.41s-2.22-4.26-2.4-7.19c-.16-2.51-4.51-6.34-5.29-2.16-.11.6-.22 5.51 0 3.74-.8 4.4.15-.66.05 0zM81.31 118.24c0-1.4.06-12.63-4.2-7.8-2 2.28-2.49 6.18-2.13 9 .83 6.39-5.24 1.35-7.51-.55-1.31-1.1-12.44-8-10.66-.95 1 4 6.84 5.88 10.19 7 8.27 2.87-1 9.24-4.28 12.61-3 3.11-7.36 14.09 1.11 8.7 3.36-2.14 5.14-6.16 7.84-9 3.45-3.61 2.42 4 2.61 6 .39 4.1 4.29 4.52 5.7.66.21-.58 1.14-7.42 1.2-7.41 5.36.85 9.43 6.51 15 6.23 6.86-.34-.45-7.39-2.91-8.41-3-1.25-11.47-2.11-12.25-6 2.29-.8 3.33 1.16 5.6-.71 2.64-2.18 5.25-3.35 8.22-5s11.52-7.59 5.16-10c-2.66-.77-18.85 11.75-18.69 5.63zm100.45 24.39c-5.54-5-2.68-9.94-2.45-16 .07-2-1.72-6.76-3.68-3.19-1.44 2.62-1.35 5.42-1.87 8.26s-1.25 3.48-3.91 4c-3.83.75-1.61-7.4-1.42-9.32.43-4.37-4.18-5.33-4.18-.54a17.63 17.63 0 0 1-1.69 8.59c-3.69 7.67-1.46-8.79-4.25-9.6-4-1.17-5.09 15.37-.24 16.45s10.75-3.62 14.87-.63c11.83 8.57 8.83 2.07 8.83 2-.93-.86-.16.98-.01-.02zm19.77-15.7c-1.06 1.26-8.51 13.29-9.18 9.13a7.17 7.17 0 0 0-1.33-3.08c-1.31-2.3 1.09-4.11.1-6.1-.87-1.77-5.76-6.82-7.51-3-1.19 2.59 2.15 6.57 1.8 9.52-.15 1.26-.15 11 2.13 12.92 4.23 3.58 11.85-7.68 13.82-10.23 2.65-3.42 2.87 6.84 4.37 7.75 5.38 3.24 3.42-5.39 3-8-.55-2.99-1.67-15.49-7.2-8.91zm33.25 9.64c-1.4-3.47.08-7.62-1.49-11.16a3.11 3.11 0 0 0-4.16-1.75 2.33 2.33 0 0 0-1.36 2.32c-.31 2.51-1.84 2.08-4.13 2.9-6.73 2.4-5-.53-6.24-5.14-.45-1.69-2.78-1.93-4-.78-2 1.94-1.22 6.15-.9 8.54.38 2.8 0 16.42 3.89 15.93 6.32-.8 1.11-10.25 4.26-12.23a14.64 14.64 0 0 1 6-1.91c1.69-.19 1.8 6.1 2.92 7.71 4.27 6.12 5.06-3.69 5.17-3.86a1.25 1.25 0 0 0-.33-1.26c-.16.08.37 1.77.37.69-1.15-2.86 0 1.54 0 0zm-123.95 11.38c3.16.3 7.87-.06 10.19-2.51 3.83-4-9.61-3.93-10.61-4.22-2-.58-3.76-2.08-3.72-4.28.06-3.6 3.86-2.38 6-2.12 2.62.31 14.45 1.67 12.56-4.41-1.22-3.94-9.74-9-13.92-7.17-5.19 2.26-6.77 7.11-8.38 12.05-.56 1.88-2.09 11.71 7.88 12.66zm40.43-11.48c-1.4-3.47.08-7.63-1.49-11.16a3.11 3.11 0 0 0-4.15-1.75 2.33 2.33 0 0 0-1.36 2.32c-.31 2.51-1.84 2.08-4.13 2.9-6.73 2.41-5-.53-6.24-5.14-.45-1.69-2.78-1.93-3.95-.78-2 1.94-1.23 6.15-.9 8.55.38 2.8 0 16.42 3.9 15.93 6.32-.8 1.11-10.25 4.26-12.22a14.59 14.59 0 0 1 6-1.91c1.68-.19 1.8 6.1 2.92 7.7 4.26 6.12 5.06-3.68 5.17-3.85a1.25 1.25 0 0 0-.33-1.26c-.17.08.36 1.77.36.69-1.21-2.87-.06 1.51-.06-.02zm23.58 28.7c-8.36.5-19.15.47-28.67.43s-20.23.07-28.57-.43c-35.1-1-99.15-3.46-99.15-3.46s64-2.48 99.09-3.46c8.35-.5 19.15-.47 28.67-.43s20.23-.07 28.57.43c35.11 1 99.15 3.46 99.15 3.46s-63.97 2.48-99.09 3.46z" class="c"/>
</svg>
