<svg id="Underline" xmlns="http://www.w3.org/2000/svg" width="1140" height="17" viewBox="0 0 1140 17">
  <defs>
    <style>
      .cls-1, .cls-2 {
        fill: #043844;
      }

      .cls-1 {
        fill-rule: evenodd;
      }
    </style>
  </defs>
  <path id="element" class="cls-1" d="M850.494,1471.92c-1.339-3.38-5.406-5.33-8.976-4.89-4.121.51-7.028,2.93-9.9,5.67-3.3,3.16-7,6.16-11.842,5.27,0.171-.05.343-0.09,0.512-0.15,3.8-1.29,7.206-4.79,5.664-8.98a0.68,0.68,0,0,0-1.326.18,7.893,7.893,0,0,1-8.615,7.6,13.12,13.12,0,0,1-3.15-2.35,16.411,16.411,0,0,0,1.724-.96c1.9-1.22,4.389-2.95,4.64-5.38a3.35,3.35,0,0,0-3.27-3.93c-2.23.03-2.915,2.53-2.111,4.16,0.378,0.77,1.541.1,1.165-.66-1.078-2.19,1.92-2.81,2.643-1.18a2.725,2.725,0,0,1-.184,2.62,10.077,10.077,0,0,1-3.091,2.93,18.985,18.985,0,0,1-2.462,1.33c-1.263-1.61-2.225-3.57-3.819-4.87-2.07-1.7-5.763-2.32-7.1.16-1.335-2.48-5.028-1.86-7.1-.16-1.594,1.3-2.556,3.26-3.819,4.87a18.985,18.985,0,0,1-2.462-1.33,10.077,10.077,0,0,1-3.091-2.93,2.725,2.725,0,0,1-.183-2.62c0.722-1.63,3.72-1.01,2.642,1.18-0.376.76,0.787,1.43,1.165,0.66,0.8-1.63.119-4.13-2.112-4.16a3.349,3.349,0,0,0-3.269,3.93c0.251,2.43,2.744,4.16,4.641,5.38a16.3,16.3,0,0,0,1.723.96,13.12,13.12,0,0,1-3.15,2.35,7.893,7.893,0,0,1-8.615-7.6,0.68,0.68,0,0,0-1.325-.18c-1.543,4.19,1.865,7.69,5.663,8.98,0.169,0.06.342,0.1,0.513,0.15-4.847.89-8.546-2.11-11.843-5.27-2.871-2.74-5.779-5.16-9.9-5.67-3.571-.44-7.638,1.51-8.977,4.89-1.207,3.05-.209,7.14,3.117,8.47,3.139,1.25,7.077-.08,7.684-3.62,0.652-3.8-5.432-5.55-6.022-1.53a2.478,2.478,0,0,0,2.657,2.69,2.309,2.309,0,0,0,1.877-2.45,3.046,3.046,0,0,1,.107,1.41c-0.308,1.79-2.654,2.99-4.386,2.75a5.264,5.264,0,0,1-3.981-4.09,6.091,6.091,0,0,1,2.477-5.91,7.764,7.764,0,0,1,6.548-1.04,8.9,8.9,0,0,1,5.073,3.63c1.073,1.92,1.213,4.33,2.1,6.35a1.639,1.639,0,0,0,1.734.77c0.888-.24,1-1.53,1.441-2.11a4.875,4.875,0,0,0,8.217,2.31,0.458,0.458,0,0,0,.1-0.11,14.079,14.079,0,0,0,4.808-.91,23.793,23.793,0,0,0,11.877-2.17s-0.366-1.5-.648-1.52a18.8,18.8,0,0,1-4.915-1.1q0.551-.69,1.044-1.41c1.174-1.7,2.311-3.51,4.413-4.16a2.713,2.713,0,0,1,2.938.85c1.044,1.38-.923,3.47-1.985,1.83-0.464-.72-1.632-0.06-1.166.66a137.6,137.6,0,0,0,8.777,0c0.466-.72-0.7-1.38-1.165-0.66-1.062,1.64-3.03-.45-1.986-1.83a2.713,2.713,0,0,1,2.938-.85c2.1,0.65,3.239,2.46,4.413,4.16q0.494,0.72,1.044,1.41a18.8,18.8,0,0,1-4.915,1.1c-0.282.02-.648,1.52-0.648,1.52a23.793,23.793,0,0,0,11.877,2.17,14.079,14.079,0,0,0,4.808.91,0.481,0.481,0,0,0,.1.11,4.876,4.876,0,0,0,8.218-2.31c0.438,0.58.552,1.87,1.44,2.11a1.639,1.639,0,0,0,1.734-.77c0.888-2.02,1.028-4.43,2.1-6.35a8.9,8.9,0,0,1,5.074-3.63,7.761,7.761,0,0,1,6.547,1.04,6.091,6.091,0,0,1,2.477,5.91,5.264,5.264,0,0,1-3.981,4.09c-1.732.24-4.078-.96-4.386-2.75a3.059,3.059,0,0,1,.107-1.41,2.309,2.309,0,0,0,1.877,2.45,2.478,2.478,0,0,0,2.657-2.69c-0.59-4.02-6.674-2.27-6.023,1.53,0.608,3.54,4.546,4.87,7.685,3.62C850.7,1479.06,851.7,1474.97,850.494,1471.92Z" transform="translate(-230 -1464)"/>
  <rect id="left_line" class="cls-2" y="11" width="500" height="1"/>
  <rect id="left_line-2" data-name="left_line" class="cls-2" x="641" y="11" width="499" height="1"/>
</svg>
